<?xml version="1.0" encoding="UTF-8" standalone="no"?>
<svg
   viewBox="0 0 64.000032 63.99969"
   version="1.1"
   id="svg96"
   sodipodi:docname="ICGC.svg"
   width="64.000031"
   height="63.999691"
   inkscape:version="1.1.2 (0a00cf5339, 2022-02-04)"
   xmlns:inkscape="http://www.inkscape.org/namespaces/inkscape"
   xmlns:sodipodi="http://sodipodi.sourceforge.net/DTD/sodipodi-0.dtd"
   xmlns="http://www.w3.org/2000/svg"
   xmlns:svg="http://www.w3.org/2000/svg">
  <sodipodi:namedview
     id="namedview98"
     pagecolor="#ffffff"
     bordercolor="#666666"
     borderopacity="1.0"
     inkscape:pageshadow="2"
     inkscape:pageopacity="0.0"
     inkscape:pagecheckerboard="0"
     showgrid="false"
     fit-margin-top="0"
     fit-margin-left="0"
     fit-margin-right="0"
     fit-margin-bottom="0"
     inkscape:zoom="6.0778619"
     inkscape:cx="16.041825"
     inkscape:cy="35.20975"
     inkscape:window-width="1802"
     inkscape:window-height="951"
     inkscape:window-x="678"
     inkscape:window-y="286"
     inkscape:window-maximized="0"
     inkscape:current-layer="svg96" />
  <defs
     id="defs4">
    <style
       id="style2">.cls-1{fill:#ffd300;stroke:#ffd300;}.cls-1,.cls-2{stroke-miterlimit:10.43;stroke-width:0.01px;}.cls-2{fill:#f59d21;stroke:#f59d21;}.cls-3{fill:#010000;}</style>
  </defs>
  <path
     id="path6"
     class="cls-1"
     d="M 0.005859375 0.005859375 L 0.013671875 44.259766 L 1.2832031 44.259766 C 2.6463037 44.090456 4.03729 44.223075 5.4003906 43.978516 A 34.408823 34.191186 0 0 0 9.1875 43.527344 A 48.011431 47.707757 0 0 0 17.773438 41.392578 A 30.291124 30.099531 0 0 0 29.349609 34.365234 A 20.768352 20.636991 0 0 0 31.783203 31.044922 A 16.395071 16.291371 0 0 1 33.210938 28.65625 A 26.41954 26.252435 0 0 1 43.955078 20.876953 A 47.945169 47.641914 0 0 1 54.292969 17.876953 A 56.502412 56.145032 0 0 1 63.994141 17.029297 L 63.994141 0.005859375 L 0.005859375 0.005859375 z M 18.890625 5.0195312 C 22.174951 5.0195312 24.978919 6.1820439 27.302734 8.5058594 C 29.626549 10.829673 30.789063 13.633641 30.789062 16.917969 C 30.789062 18.606608 30.53272 19.99368 30.021484 21.078125 L 21.564453 39.064453 C 21.316582 39.575696 20.946983 39.977136 20.458984 40.271484 C 19.970977 40.56583 19.448336 40.714844 18.890625 40.714844 C 18.332908 40.714844 17.810265 40.56583 17.322266 40.271484 C 16.834266 39.977136 16.474574 39.575696 16.242188 39.064453 L 7.7597656 21.078125 C 7.2485232 19.99368 6.9941406 18.606608 6.9941406 16.917969 C 6.9941406 13.633641 8.1546959 10.829673 10.478516 8.5058594 C 12.802329 6.1820439 15.606298 5.0195313 18.890625 5.0195312 z M 18.890625 10.96875 C 17.248463 10.96875 15.847455 11.550985 14.685547 12.712891 C 13.523634 13.874799 12.941406 15.275805 12.941406 16.917969 C 12.941406 18.560131 13.523634 19.963092 14.685547 21.125 C 15.847455 22.286906 17.248463 22.867188 18.890625 22.867188 C 20.532788 22.867188 21.935749 22.286906 23.097656 21.125 C 24.259564 19.963092 24.839844 18.560131 24.839844 16.917969 C 24.839844 15.275805 24.259564 13.874799 23.097656 12.712891 C 21.935749 11.550985 20.532788 10.96875 18.890625 10.96875 z " />
  <path
     class="cls-2"
     d="m 57.321503,20.698412 c 0.946597,-0.159904 1.893195,-0.09406 2.839793,-0.272777 1.268441,-0.06584 2.555813,-0.04703 3.78639,-0.07525 q 0,21.812754 0,43.64432 H 0.00501695 V 47.515213 a 30.594035,30.400527 0 0 0 4.26915525,-0.122279 48.929631,48.620149 0 0 0 16.4707988,-3.931752 27.867834,27.691569 0 0 0 9.068405,-6.22684 c 0.577425,-0.564366 0.946598,-1.288636 1.486158,-1.881221 0.653153,-0.855955 1.041258,-1.881221 1.637614,-2.755988 a 21.307912,21.173139 0 0 1 7.402394,-6.584273 45.360958,45.074048 0 0 1 16.981961,-5.314448 z"
     id="path8" />
</svg>
