<?xml version="1.0" encoding="UTF-8" standalone="no"?>
<!-- Generator: Adobe Illustrator 16.0.3, SVG Export Plug-In . SVG Version: 6.00 Build 0)  -->

<svg
   xmlns:dc="http://purl.org/dc/elements/1.1/"
   xmlns:cc="http://creativecommons.org/ns#"
   xmlns:rdf="http://www.w3.org/1999/02/22-rdf-syntax-ns#"
   xmlns:svg="http://www.w3.org/2000/svg"
   xmlns="http://www.w3.org/2000/svg"
   xmlns:sodipodi="http://sodipodi.sourceforge.net/DTD/sodipodi-0.dtd"
   xmlns:inkscape="http://www.inkscape.org/namespaces/inkscape"
   version="1.1"
   id="Capa_1"
   x="0px"
   y="0px"
   width="24px"
   height="24px"
   viewBox="0 0 24 24"
   enable-background="new 0 0 24 24"
   xml:space="preserve"
   sodipodi:docname="gpx.svg"
   inkscape:version="0.92.5 (2060ec1f9f, 2020-04-08)"><metadata
   id="metadata93"><rdf:RDF><cc:Work
       rdf:about=""><dc:format>image/svg+xml</dc:format><dc:type
         rdf:resource="http://purl.org/dc/dcmitype/StillImage" /></cc:Work></rdf:RDF></metadata><defs
   id="defs91" /><sodipodi:namedview
   pagecolor="#ffffff"
   bordercolor="#666666"
   borderopacity="1"
   objecttolerance="10"
   gridtolerance="10"
   guidetolerance="10"
   inkscape:pageopacity="0"
   inkscape:pageshadow="2"
   inkscape:window-width="1920"
   inkscape:window-height="1015"
   id="namedview89"
   showgrid="false"
   inkscape:zoom="27.125"
   inkscape:cx="12"
   inkscape:cy="12"
   inkscape:window-x="3440"
   inkscape:window-y="0"
   inkscape:window-maximized="1"
   inkscape:current-layer="Capa_1" />
<path
   d="m 3.5204973,1.9265939 c -1.897065,0 -3.45229804,1.5492362 -3.45229804,3.4423029 0,0.7336382 0.233885,1.4153022 0.629689,1.9730272 l 2.40081704,4.149954 c 0.335834,0.439783 0.559724,0.355824 0.837587,-0.02399 l 2.646695,-4.5037777 c 0.05397,-0.095953 0.09396,-0.1999015 0.131935,-0.3038502 0.163919,-0.3998029 0.253875,-0.833589 0.253875,-1.2913633 0.002,-1.8930667 -1.551235,-3.4423029 -3.4483,-3.4423029 z m 0,1.6132047 c 1.005504,-0.008 1.8251,0.8016047 1.833096,1.807109 0,0.008 0,0.013993 0,0.021989 0.004,1.0055042 -0.807601,1.8231011 -1.811107,1.8290982 -0.008,0 -0.01399,0 -0.02199,0 -1.005504,0.008 -1.827099,-0.8036039 -1.835095,-1.8071091 0,-0.006 0,-0.013993 0,-0.021989 -0.004,-1.0075032 0.807601,-1.8251001 1.815105,-1.8290981 0.006,0 0.01199,0 0.019991,0 z"
   id="path74"
   inkscape:connector-curvature="0"
   style="stroke-width:1.9990145" />
<path
   d="m 0.54396426,18.176582 c -0.681664,1.367326 -0.335834,3.032506 1.01749904,3.800127 1.355332,0.767621 2.908566,0.309847 3.798127,-1.019497 0.511747,-0.885564 0.469768,-1.941044 -0.0099,-2.772634 l 4.6716967,-3.79213 c 1.225395,0.46777 2.650692,0.008 3.356344,-1.131442 l 4.873598,1.021496 c 0.09396,0.853579 0.571718,1.655184 1.369324,2.114958 1.321349,0.763623 3.034505,0.303849 3.796129,-1.017499 0.737636,-1.27737 0.32584,-2.910565 -0.89156,-3.708171 -0.07796,-0.06997 -0.167918,-0.12194 -0.267868,-0.153925 -1.299359,-0.655676 -2.918561,-0.195903 -3.656198,1.081467 -0.02999,0.04997 -0.05397,0.103945 -0.07996,0.155923 l -4.733707,-0.99351 C 13.7675,10.842199 13.299728,9.9906186 12.532107,9.4828685 12.454148,9.4128977 12.36219,9.3609285 12.264239,9.328944 10.96488,8.6732677 9.3456783,9.1330414 8.6080413,10.410411 c -0.565721,0.979517 -0.457774,2.170929 0.169916,3.034504 l -4.543759,3.664193 c -0.0099,-0.004 -0.02199,-0.008 -0.03399,-0.012 -1.29936,-0.655676 -2.996524,-0.237881 -3.65619804,1.079469 z m 1.34333804,0.777617 c 0.331837,-0.585711 1.07547,-0.79161 1.661181,-0.461773 0.006,0.004 0.01399,0.008 0.01999,0.012 0.585711,0.331837 0.791609,1.073471 0.461772,1.659182 -0.004,0.008 -0.008,0.01399 -0.01199,0.01999 -0.329837,0.585711 -1.07347,0.79161 -1.659182,0.463771 -0.006,-0.006 -0.01399,-0.0099 -0.01999,-0.012 -0.585711,-0.331836 -0.793609,-1.07547 -0.461772,-1.661181 0.002,-0.008 0.006,-0.014 0.01,-0.01999 z m 8.064025,-7.76817 c 0.3318367,-0.585712 1.0734697,-0.79161 1.6591817,-0.461773 0.006,0.004 0.014,0.008 0.01999,0.012 0.585712,0.329838 0.79161,1.073471 0.461772,1.659182 -0.004,0.008 -0.008,0.01399 -0.012,0.02199 -0.331836,0.585712 -1.07347,0.79161 -1.659182,0.461774 -0.006,-0.004 -0.014,-0.008 -0.01999,-0.012 -0.5857117,-0.331838 -0.7916097,-1.073472 -0.4617727,-1.659183 0.004,-0.008 0.008,-0.01599 0.012001,-0.02199 z m 9.9950717,2.188921 c 0.331836,-0.585712 1.073471,-0.791611 1.659182,-0.461772 0.008,0.004 0.014,0.008 0.01999,0.012 0.585711,0.331836 0.793608,1.07347 0.463771,1.659182 -0.006,0.006 -0.0099,0.014 -0.014,0.01999 -0.329838,0.585712 -1.073471,0.791611 -1.659182,0.461773 -0.006,-0.004 -0.014,-0.008 -0.01999,-0.012 -0.58771,-0.331835 -0.791609,-1.07347 -0.461772,-1.661181 0.004,-0.006 0.008,-0.012 0.012,-0.01799 z"
   id="path76"
   inkscape:connector-curvature="0"
   style="stroke-width:1.9990145" />
</svg>