<?xml version="1.0" encoding="UTF-8" standalone="no"?>
<!-- Generator: Adobe Illustrator 16.0.3, SVG Export Plug-In . SVG Version: 6.00 Build 0)  -->

<svg
   xmlns:dc="http://purl.org/dc/elements/1.1/"
   xmlns:cc="http://creativecommons.org/ns#"
   xmlns:rdf="http://www.w3.org/1999/02/22-rdf-syntax-ns#"
   xmlns:svg="http://www.w3.org/2000/svg"
   xmlns="http://www.w3.org/2000/svg"
   xmlns:sodipodi="http://sodipodi.sourceforge.net/DTD/sodipodi-0.dtd"
   xmlns:inkscape="http://www.inkscape.org/namespaces/inkscape"
   version="1.1"
   id="Capa_1"
   x="0px"
   y="0px"
   width="24px"
   height="24px"
   viewBox="0 0 24 24"
   enable-background="new 0 0 24 24"
   xml:space="preserve"
   sodipodi:docname="kmz.svg"
   inkscape:version="0.92.5 (2060ec1f9f, 2020-04-08)"><metadata
   id="metadata96"><rdf:RDF><cc:Work
       rdf:about=""><dc:format>image/svg+xml</dc:format><dc:type
         rdf:resource="http://purl.org/dc/dcmitype/StillImage" /></cc:Work></rdf:RDF></metadata><defs
   id="defs94" /><sodipodi:namedview
   pagecolor="#ffffff"
   bordercolor="#666666"
   borderopacity="1"
   objecttolerance="10"
   gridtolerance="10"
   guidetolerance="10"
   inkscape:pageopacity="0"
   inkscape:pageshadow="2"
   inkscape:window-width="3440"
   inkscape:window-height="1411"
   id="namedview92"
   showgrid="false"
   inkscape:zoom="21.075054"
   inkscape:cx="4.5907113"
   inkscape:cy="17.209662"
   inkscape:window-x="0"
   inkscape:window-y="0"
   inkscape:window-maximized="1"
   inkscape:current-layer="Capa_1" />


<path
   id="kml"
   d="m 11.988011,0.10008586 c -6.5563456,0 -11.87047371,5.35378894 -11.87047371,11.96307314 0,6.603903 5.31412811,11.961278 11.87047371,11.961278 6.558125,0 11.870474,-5.353788 11.870474,-11.961278 0,-6.6128713 -5.312349,-11.96307314 -11.870474,-11.96307314 m -0.242036,0.8447687 c 5.203788,0 9.592481,3.51000504 10.966394,8.30958234 -0.259833,0.491437 -0.580175,0.8142781 -0.985942,0.8465621 -1.418406,0 -3.320885,-3.676806 -4.413609,-4.9161589 -1.637308,-1.847371 -3.895724,-3.5925088 -7.8768695,-3.5925088 -0.6958557,0 -1.2795912,0.041252 -1.7654441,0.1129937 C 8.939417,1.2156821 10.311551,0.94485386 11.745975,0.94485386 M 6.8055792,3.699769 c 2.9631691,0 5.1254818,2.2778265 7.4479658,4.5466849 1.487814,1.452787 5.602438,5.3017761 8.877051,6.0263751 -0.0961,0.6134 -0.236698,1.203482 -0.416445,1.78101 C 15.497542,15.218038 8.7187365,6.9855785 4.8657268,6.9855785 c -1.4344231,0 -2.7940995,1.1550553 -3.98292663,2.3513624 C 1.4594169,7.3173878 2.575277,5.5202366 4.0648702,4.1194632 4.8692861,3.8755383 5.7947203,3.699769 6.8055792,3.699769 M 3.0967236,15.524737 c 1.776122,0 6.7770263,3.59789 13.4009994,3.59789 1.911378,0 3.744449,-0.505786 5.004463,-0.959557 -0.519665,0.785581 -1.144334,1.510181 -1.845528,2.132548 -1.315185,0.414314 -3.112662,0.82504 -5.063194,0.82504 -4.265895,0 -5.4173487,-1.004397 -6.5741422,-1.004397 -1.3098453,0 -1.1034023,1.172991 -0.7581441,2.062598 C 4.824794,21.043535 2.8564666,19.077788 1.7139114,16.629573 1.9523886,16.034109 2.3706137,15.524737 3.0967236,15.524737"
   inkscape:connector-curvature="0"
   style="stroke-width:1.78660905" />
</svg>