<?xml version="1.0" encoding="utf-8"?>
<!-- Generator: Adobe Illustrator 16.0.3, SVG Export Plug-In . SVG Version: 6.00 Build 0)  -->
<!DOCTYPE svg PUBLIC "-//W3C//DTD SVG 1.1//EN" "http://www.w3.org/Graphics/SVG/1.1/DTD/svg11.dtd">
<svg version="1.1" id="Capa_1" xmlns="http://www.w3.org/2000/svg" xmlns:xlink="http://www.w3.org/1999/xlink" x="0px" y="0px"
	 width="24px" height="24px" viewBox="0 0 24 24" enable-background="new 0 0 24 24" xml:space="preserve">
<path d="M13.2,7.07L10.25,11l2.25,3c0.33,0.439,0.24,1.07-0.2,1.4s-1.07,0.25-1.4-0.2
	c-1.05-1.4-2.31-3.07-3.1-4.14c-0.4-0.53-1.2-0.53-1.6,0l-4,5.331C1.71,17.061,2.18,18,3,18h18c0.82,0,1.29-0.939,0.801-1.6
	l-7-9.331C14.4,6.53,13.6,6.53,13.2,7.07z"/>
<path d="M19.5,8.708c0.279,0,0.5-0.22,0.5-0.5v-1.5h1.5c0.279,0,0.5-0.22,0.5-0.5s-0.221-0.5-0.5-0.5H20v-1.5
	c0-0.28-0.221-0.5-0.5-0.5c-0.281,0-0.5,0.22-0.5,0.5v1.5h-1.5c-0.281,0-0.5,0.22-0.5,0.5s0.219,0.5,0.5,0.5H19v1.5
	C19,8.488,19.219,8.708,19.5,8.708z"/>
</svg>
