<?xml version="1.0" encoding="UTF-8" standalone="no"?>
<!-- Generator: Adobe Illustrator 16.0.3, SVG Export Plug-In . SVG Version: 6.00 Build 0)  -->

<svg
   xmlns:dc="http://purl.org/dc/elements/1.1/"
   xmlns:cc="http://creativecommons.org/ns#"
   xmlns:rdf="http://www.w3.org/1999/02/22-rdf-syntax-ns#"
   xmlns:svg="http://www.w3.org/2000/svg"
   xmlns="http://www.w3.org/2000/svg"
   xmlns:sodipodi="http://sodipodi.sourceforge.net/DTD/sodipodi-0.dtd"
   xmlns:inkscape="http://www.inkscape.org/namespaces/inkscape"
   version="1.1"
   id="Capa_1"
   x="0px"
   y="0px"
   width="24"
   height="24"
   viewBox="0 0 23.999999 23.999999"
   enable-background="new 0 0 261.644 261.644"
   xml:space="preserve"
   sodipodi:docname="precisePosition.svg"
   inkscape:version="0.92.5 (2060ec1f9f, 2020-04-08)"><metadata
   id="metadata1001"><rdf:RDF><cc:Work
       rdf:about=""><dc:format>image/svg+xml</dc:format><dc:type
         rdf:resource="http://purl.org/dc/dcmitype/StillImage" /><dc:title></dc:title></cc:Work></rdf:RDF></metadata><defs
   id="defs999" /><sodipodi:namedview
   pagecolor="#ffffff"
   bordercolor="#666666"
   borderopacity="1"
   objecttolerance="10"
   gridtolerance="10"
   guidetolerance="10"
   inkscape:pageopacity="0"
   inkscape:pageshadow="2"
   inkscape:window-width="1920"
   inkscape:window-height="1015"
   id="namedview997"
   showgrid="false"
   inkscape:pagecheckerboard="true"
   inkscape:zoom="12.352662"
   inkscape:cx="7.1699204"
   inkscape:cy="3.6701199"
   inkscape:window-x="1920"
   inkscape:window-y="0"
   inkscape:window-maximized="1"
   inkscape:current-layer="g980" />
<g
   id="g982"
   transform="matrix(0.09096708,0,0,0.09096708,-35.151479,3.7771816)">
  <g
   id="g980">
    
    
    
    
    
    <g
   id="g1008"
   transform="translate(387.11897,-40.936718)"><path
     style="clip-rule:evenodd;fill-rule:evenodd"
     inkscape:connector-curvature="0"
     id="path970"
     d="m 50.591,0.511 c 0.983,0.968 2.444,1.77 2.852,2.939 0.88,2.524 -0.889,4.116 -4.297,4.534 C 45.618,8.417 42.024,8.693 38.609,9.601 21.742,14.084 9.107,30.156 8.514,47.589 8.491,48.268 8.438,48.95 8.331,49.62 7.98,51.814 6.936,53.267 4.454,53.087 2.446,52.941 1.164,51.389 1.231,48.952 1.917,24.13 19.901,5.344 41.539,1.612 c 2.165,-0.374 4.332,-0.734 6.498,-1.101 0.851,0 1.703,0 2.554,0 z" /><path
     style="clip-rule:evenodd;fill-rule:evenodd"
     inkscape:connector-curvature="0"
     id="path972"
     d="m 214.63,0.511 c 2.996,0.533 6.034,0.898 8.983,1.626 21.153,5.223 35.603,22.113 37.539,43.765 0.075,0.848 0.217,1.69 0.264,2.539 0.152,2.761 -1.05,4.483 -3.205,4.647 -2.328,0.177 -3.483,-1.072 -3.993,-3.966 -0.851,-4.825 -1.234,-9.835 -2.842,-14.406 C 245.997,19.422 230.697,8.569 214.543,7.994 213.531,7.958 212.366,7.989 211.562,7.507 210.581,6.919 209.36,5.888 209.24,4.924 c -0.138,-1.103 0.73,-2.393 1.345,-3.5 0.246,-0.443 0.979,-0.616 1.49,-0.912 0.851,-0.001 1.702,-0.001 2.555,-0.001 z" /><path
     style="clip-rule:evenodd;fill-rule:evenodd"
     inkscape:connector-curvature="0"
     id="path974"
     d="m 48.036,262.154 c -2.997,-0.533 -6.035,-0.898 -8.983,-1.626 C 17.899,255.305 3.45,238.415 1.514,216.763 c -0.076,-0.848 -0.217,-1.691 -0.264,-2.54 -0.152,-2.76 1.05,-4.482 3.205,-4.646 2.329,-0.177 3.483,1.072 3.994,3.967 0.851,4.825 1.233,9.835 2.841,14.406 5.378,15.294 20.678,26.146 36.833,26.722 1.011,0.036 2.177,0.005 2.982,0.487 0.981,0.589 2.202,1.62 2.322,2.583 0.138,1.104 -0.731,2.393 -1.345,3.5 -0.246,0.443 -0.979,0.616 -1.49,0.912 -0.852,0 -1.704,0 -2.556,0 z" /><path
     style="clip-rule:evenodd;fill-rule:evenodd"
     inkscape:connector-curvature="0"
     id="path976"
     d="m 212.074,262.154 c -0.983,-0.969 -2.444,-1.77 -2.852,-2.939 -0.881,-2.524 0.888,-4.116 4.297,-4.534 3.527,-0.433 7.121,-0.708 10.537,-1.616 16.867,-4.483 29.501,-20.555 30.095,-37.988 0.023,-0.679 0.075,-1.361 0.183,-2.03 0.351,-2.195 1.395,-3.647 3.877,-3.467 2.009,0.146 3.29,1.698 3.223,4.135 -0.685,24.822 -18.669,43.607 -40.307,47.34 -2.165,0.373 -4.332,0.734 -6.497,1.101 -0.853,-0.002 -1.704,-0.002 -2.556,-0.002 z" /><path
     style="clip-rule:evenodd;fill-rule:evenodd"
     inkscape:connector-curvature="0"
     id="path978"
     d="m 134.812,86.365 c 0,12.519 -0.001,25.037 0,37.555 10e-4,3.931 0.003,3.934 3.824,3.934 25.207,0.001 50.415,0 75.622,0.001 4.036,0 5.588,1.013 5.52,3.582 -0.064,2.454 -1.546,3.374 -5.474,3.374 -25.377,0.002 -50.755,0 -76.133,0.003 -3.35,0 -3.357,0.009 -3.358,3.375 -0.002,25.292 -10e-4,50.584 -0.003,75.877 -0.001,0.937 0.062,1.887 -0.071,2.807 -0.271,1.866 -1.468,2.858 -3.318,2.885 -1.963,0.029 -3.235,-0.961 -3.5,-2.965 -0.122,-0.923 -0.063,-1.87 -0.063,-2.807 -0.003,-25.037 -0.002,-50.074 -0.002,-75.111 0,-4.06 -0.002,-4.063 -3.951,-4.063 -25.122,0 -50.245,0 -75.367,-0.003 -0.937,0 -1.89,0.071 -2.805,-0.078 -1.859,-0.304 -2.814,-1.525 -2.827,-3.375 -0.012,-1.85 0.929,-3.095 2.781,-3.413 0.996,-0.171 2.038,-0.086 3.06,-0.086 25.208,-0.003 50.415,-0.002 75.622,-0.004 3.479,0 3.485,-0.007 3.485,-3.504 0.002,-25.208 0,-50.415 0.003,-75.623 0,-0.936 -0.053,-1.882 0.058,-2.807 0.241,-2.008 1.495,-3.029 3.459,-3.008 1.969,0.021 3.18,1.079 3.388,3.09 0.086,0.843 0.048,1.701 0.048,2.553 0.003,12.603 0.002,25.207 0.002,37.811 z" /></g>
  </g>
</g>
<g
   id="g984"
   transform="translate(0,-237.64401)">
</g>
<g
   id="g986"
   transform="translate(0,-237.64401)">
</g>
<g
   id="g988"
   transform="translate(0,-237.64401)">
</g>
<g
   id="g990"
   transform="translate(0,-237.64401)">
</g>
<g
   id="g992"
   transform="translate(0,-237.64401)">
</g>
<g
   id="g994"
   transform="translate(0,-237.64401)">
</g>
</svg>