<?xml version="1.0" encoding="utf-8"?>
<!-- Generator: Adobe Illustrator 16.0.3, SVG Export Plug-In . SVG Version: 6.00 Build 0)  -->
<!DOCTYPE svg PUBLIC "-//W3C//DTD SVG 1.1//EN" "http://www.w3.org/Graphics/SVG/1.1/DTD/svg11.dtd">
<svg version="1.1" id="Capa_1" xmlns="http://www.w3.org/2000/svg" xmlns:xlink="http://www.w3.org/1999/xlink" x="0px" y="0px"
	 width="24px" height="24px" viewBox="0 0 24 24" enable-background="new 0 0 24 24" xml:space="preserve">
<path d="M19,15.18V7c0-2.21-1.79-4-4-4s-4,1.79-4,4v10c0,1.1-0.9,2-2,2s-2-0.9-2-2V8.82C8.16,8.4,9,7.3,9,6c0-1.66-1.34-3-3-3
	S3,4.34,3,6c0,1.3,0.84,2.4,2,2.82V17c0,2.21,1.79,4,4,4s4-1.79,4-4V7c0-1.1,0.9-2,2-2s2,0.9,2,2v8.18c-1.16,0.41-2,1.51-2,2.82
	c0,1.66,1.34,3,3,3s3-1.34,3-3C21,16.7,20.16,15.6,19,15.18z"/>
<circle fill="#FFFFFF" cx="16.938" cy="16.859" r="5.391"/>
<path d="M20.753,19.358c0.4-0.7,0.7-1.5,0.7-2.4c0-2.5-2-4.5-4.5-4.5s-4.5,2-4.5,4.5s2,4.5,4.5,4.5c0.9,0,1.7-0.3,2.4-0.7l2.699,2.7
	l1.4-1.4L20.753,19.358z M16.953,19.458c-1.4,0-2.5-1.1-2.5-2.5s1.1-2.5,2.5-2.5s2.5,1.1,2.5,2.5S18.354,19.458,16.953,19.458z"/>
</svg>
